<svg width="264" height="29" viewBox="0 0 264 29" fill="none" xmlns="http://www.w3.org/2000/svg">
<path d="M2.94447e-05 28.24V-1.09673e-05H6.28003V28.24H2.94447e-05ZM4.80003 28.24V22.8H20.28V28.24H4.80003ZM4.80003 16.44V11.2H18.88V16.44H4.80003ZM4.80003 5.39999V-1.09673e-05H20.08V5.39999H4.80003ZM24.6094 28.24V-1.09673e-05H30.8894V28.24H24.6094ZM29.4494 28.24V22.72H43.4094V28.24H29.4494ZM59.136 28.24V23.36H65.776C67.0026 23.36 67.9626 23 68.656 22.28C69.3493 21.56 69.696 20.68 69.696 19.64C69.696 18.92 69.536 18.28 69.216 17.72C68.896 17.16 68.4426 16.72 67.856 16.4C67.296 16.08 66.6026 15.92 65.776 15.92H59.136V11.16H65.256C66.296 11.16 67.136 10.9067 67.776 10.4C68.416 9.86666 68.736 9.06666 68.736 7.99999C68.736 6.95999 68.416 6.18666 67.776 5.67999C67.136 5.14666 66.296 4.87999 65.256 4.87999H59.136V-1.09673e-05H66.456C68.2693 -1.09673e-05 69.8026 0.333322 71.056 0.999988C72.336 1.66666 73.3093 2.55999 73.976 3.67999C74.6426 4.79999 74.976 6.03999 74.976 7.39999C74.976 9.13332 74.416 10.6 73.296 11.8C72.176 13 70.5226 13.8267 68.336 14.28L68.496 12.16C70.8693 12.6133 72.696 13.5333 73.976 14.92C75.2826 16.3067 75.936 18.0133 75.936 20.04C75.936 21.5867 75.5493 22.9867 74.776 24.24C74.0293 25.4667 72.936 26.44 71.496 27.16C70.0826 27.88 68.376 28.24 66.376 28.24H59.136ZM54.336 28.24V-1.09673e-05H60.536V28.24H54.336ZM77.841 28.24L89.041 -1.09673e-05H94.721L105.801 28.24H99.161L90.681 4.79999H92.961L84.361 28.24H77.841ZM84.201 23.12V18H99.601V23.12H84.201ZM113.589 16.6V11.96H119.549C120.802 11.96 121.762 11.64 122.429 11C123.122 10.36 123.469 9.49332 123.469 8.39999C123.469 7.38666 123.136 6.54666 122.469 5.87999C121.802 5.21332 120.842 4.87999 119.589 4.87999H113.589V-1.09673e-05H120.309C122.176 -1.09673e-05 123.816 0.359989 125.229 1.07999C126.642 1.77332 127.749 2.74666 128.549 3.99999C129.349 5.25332 129.749 6.69332 129.749 8.31999C129.749 9.97332 129.349 11.4267 128.549 12.68C127.749 13.9067 126.629 14.8667 125.189 15.56C123.749 16.2533 122.056 16.6 120.109 16.6H113.589ZM108.789 28.24V-1.09673e-05H115.069V28.24H108.789ZM124.149 28.24L115.349 16.08L121.109 14.52L131.589 28.24H124.149ZM139.136 16.6V11.96H145.096C146.349 11.96 147.309 11.64 147.976 11C148.669 10.36 149.016 9.49332 149.016 8.39999C149.016 7.38666 148.683 6.54666 148.016 5.87999C147.349 5.21332 146.389 4.87999 145.136 4.87999H139.136V-1.09673e-05H145.856C147.723 -1.09673e-05 149.363 0.359989 150.776 1.07999C152.189 1.77332 153.296 2.74666 154.096 3.99999C154.896 5.25332 155.296 6.69332 155.296 8.31999C155.296 9.97332 154.896 11.4267 154.096 12.68C153.296 13.9067 152.176 14.8667 150.736 15.56C149.296 16.2533 147.603 16.6 145.656 16.6H139.136ZM134.336 28.24V-1.09673e-05H140.616V28.24H134.336ZM149.696 28.24L140.896 16.08L146.656 14.52L157.136 28.24H149.696ZM159.883 28.24V-1.09673e-05H166.163V28.24H159.883ZM171.602 28.24V-1.09673e-05H177.882V28.24H171.602ZM176.442 28.24V22.72H190.402V28.24H176.442ZM194.023 28.24V-1.09673e-05H200.303V28.24H194.023ZM198.823 28.24V22.8H214.303V28.24H198.823ZM198.823 16.44V11.2H212.903V16.44H198.823ZM198.823 5.39999V-1.09673e-05H214.103V5.39999H198.823ZM224.693 28.24V0.399989H230.973V28.24H224.693ZM215.853 5.47999V-1.09673e-05H239.813V5.47999H215.853ZM243.32 28.24V-1.09673e-05H249.6V28.24H243.32ZM248.12 28.24V22.8H263.6V28.24H248.12ZM248.12 16.44V11.2H262.2V16.44H248.12ZM248.12 5.39999V-1.09673e-05H263.4V5.39999H248.12Z" fill="url(#paint0_linear_2020_401)"/>
<defs>
<linearGradient id="paint0_linear_2020_401" x1="-2.71997" y1="13.24" x2="272.28" y2="13.24" gradientUnits="userSpaceOnUse">
<stop offset="0.144231" stop-color="#E0BE87"/>
<stop offset="0.427885" stop-color="#825A30"/>
<stop offset="0.822115" stop-color="#FAD99F"/>
</linearGradient>
</defs>
</svg>
