<svg width="230" height="409" viewBox="0 0 230 409" fill="none" xmlns="http://www.w3.org/2000/svg">
<path d="M145.017 160.769C132.932 160.769 122.017 166.858 115 176.602C108.373 166.858 97.4578 160.769 84.9832 160.769C64.3222 160.769 47.9493 178.226 47.9493 199.337V239.935V311.388V350.768H62.3731V311.388V239.935V199.337C62.3731 186.346 72.5087 175.79 84.9832 175.79C97.4578 175.79 107.593 186.346 107.593 199.337V239.935V336.559V374.315H122.017V336.559V239.935V199.337C122.017 186.346 132.153 175.79 144.627 175.79C157.102 175.79 167.238 186.346 167.238 199.337V308.952H181.661V199.337C182.051 177.82 165.288 160.769 145.017 160.769Z" fill="url(#paint0_linear_2020_403)"/>
<path d="M115 392.584C110.712 392.584 107.593 396.238 107.593 400.298C107.593 404.763 111.102 408.011 115 408.011C119.288 408.011 122.407 404.357 122.407 400.298C122.407 395.832 119.288 392.584 115 392.584ZM114.61 400.298C114.61 399.892 115 399.892 114.61 400.298C115 399.892 115.39 400.298 115.39 400.298C115.39 400.704 114.61 400.704 114.61 400.298Z" fill="url(#paint1_linear_2020_403)"/>
<path d="M122.407 116.517C122.407 112.051 118.898 108.803 115 108.803C110.712 108.803 107.593 112.457 107.593 116.517C107.593 120.983 111.102 124.231 115 124.231C119.288 124.231 122.407 120.983 122.407 116.517ZM114.61 116.517C115 116.111 115.39 116.517 115.39 116.517C115.39 116.923 114.61 116.923 114.61 116.517Z" fill="url(#paint2_linear_2020_403)"/>
<path d="M230 202.179C230 150.619 198.814 105.961 152.034 90.1279V54.8075H175.424V0H54.5763V55.2135H77.9661V90.5339C31.1864 106.367 0 151.025 0 202.585V261.858V262.264H14.0339V261.858V202.585C14.0339 146.965 55.7458 101.901 108.373 99.4654H120.458C173.475 101.901 215.186 146.965 215.186 202.585V258.61H229.22V202.179H230ZM69 39.7862V15.0213H161V39.7862H69ZM138 86.4741C132.542 85.2561 127.085 84.8501 121.627 84.4441H108.763C103.305 84.8501 97.8475 85.2561 92.3898 86.4741V54.8075H138V86.4741Z" fill="url(#paint3_linear_2020_403)"/>
<defs>
<linearGradient id="paint0_linear_2020_403" x1="-86.4065" y1="90.5072" x2="290.644" y2="393.313" gradientUnits="userSpaceOnUse">
<stop offset="0.0531915" stop-color="#C8A16E"/>
<stop offset="0.3059" stop-color="#754C24"/>
<stop offset="0.5133" stop-color="#FFDEA4"/>
<stop offset="0.6941" stop-color="#8E653A"/>
<stop offset="0.9176" stop-color="#8B6439"/>
</linearGradient>
<linearGradient id="paint1_linear_2020_403" x1="-149.824" y1="169.471" x2="227.227" y2="472.279" gradientUnits="userSpaceOnUse">
<stop offset="0.0531915" stop-color="#C8A16E"/>
<stop offset="0.3059" stop-color="#754C24"/>
<stop offset="0.5133" stop-color="#FFDEA4"/>
<stop offset="0.6941" stop-color="#8E653A"/>
<stop offset="0.9176" stop-color="#8B6439"/>
</linearGradient>
<linearGradient id="paint2_linear_2020_403" x1="-15.8047" y1="2.59377" x2="361.246" y2="305.401" gradientUnits="userSpaceOnUse">
<stop offset="0.0531915" stop-color="#C8A16E"/>
<stop offset="0.3059" stop-color="#754C24"/>
<stop offset="0.5133" stop-color="#FFDEA4"/>
<stop offset="0.6941" stop-color="#8E653A"/>
<stop offset="0.9176" stop-color="#8B6439"/>
</linearGradient>
<linearGradient id="paint3_linear_2020_403" x1="-33.7277" y1="24.9118" x2="343.322" y2="327.717" gradientUnits="userSpaceOnUse">
<stop offset="0.0531915" stop-color="#C8A16E"/>
<stop offset="0.3059" stop-color="#754C24"/>
<stop offset="0.5133" stop-color="#FFDEA4"/>
<stop offset="0.6941" stop-color="#8E653A"/>
<stop offset="0.9176" stop-color="#8B6439"/>
</linearGradient>
</defs>
</svg>
